<svg xmlns="http://www.w3.org/2000/svg" xmlns:xlink="http://www.w3.org/1999/xlink" width="1080" zoomAndPan="magnify" viewBox="0 0 810 809.999993" height="1080" preserveAspectRatio="xMidYMid meet" version="1.0"><defs><g/><clipPath id="79ccf48f46"><path d="M 0.558594 137 L 545 137 L 545 545 L 0.558594 545 Z M 0.558594 137 " clip-rule="nonzero"/></clipPath><clipPath id="924d24a7fa"><rect x="0" width="739" y="0" height="631"/></clipPath></defs><g transform="matrix(1, 0, 0, 1, 40, 51)"><g clip-path="url(#924d24a7fa)"><g clip-path="url(#79ccf48f46)"><g fill="#000000" fill-opacity="1"><g transform="translate(37.703503, 524.577637)"><g><path d="M 322.300781 19.683594 L 160.476562 19.683594 L 193.632812 -210.671875 L 213.117188 -207.867188 L 213.117188 -188.183594 L 206.292969 -188.183594 L 206.292969 -207.867188 L 224.625 -200.691406 L 138.363281 19.683594 L -36.265625 19.683594 L 10.808594 -387.128906 L 207.796875 -387.128906 L 133.761719 -147.980469 L 114.957031 -153.800781 L 117.949219 -173.257812 L 124.773438 -172.207031 L 121.78125 -152.75 L 104.054688 -161.308594 L 203.910156 -368.230469 L 298.976562 -368.230469 L 287.367188 -151.699219 L 267.707031 -152.75 L 264.925781 -172.238281 L 272.273438 -173.289062 L 275.058594 -153.800781 L 255.878906 -158.230469 L 308.742188 -387.128906 L 506.808594 -387.128906 L 335.367188 19.683594 Z M 322.300781 -19.683594 L 322.300781 0 L 304.160156 -7.644531 L 459.011719 -375.089844 L 477.152344 -367.445312 L 477.152344 -347.757812 L 324.398438 -347.757812 L 324.398438 -367.445312 L 343.578125 -363.015625 L 291.199219 -136.222656 L 246.769531 -129.875 L 258.550781 -349.601562 L 278.207031 -348.546875 L 278.207031 -328.863281 L 216.265625 -328.863281 L 216.265625 -348.546875 L 233.996094 -339.992188 L 133.179688 -131.082031 L 89.402344 -137.816406 L 162.292969 -373.265625 L 181.097656 -367.445312 L 181.097656 -347.757812 L 28.34375 -347.757812 L 28.34375 -367.445312 L 47.898438 -365.179688 L 5.382812 2.261719 L -14.171875 0 L -14.171875 -19.683594 L 124.929688 -19.683594 L 124.929688 0 L 106.601562 -7.175781 L 192.859375 -227.554688 L 235.839844 -227.554688 L 202.679688 2.804688 L 183.195312 0 L 183.195312 -19.683594 Z M 322.300781 -19.683594 "/></g></g></g></g><g fill="#000000" fill-opacity="1"><g transform="translate(381.524267, 524.577637)"><g><path d="M 76.113281 19.683594 L -81.308594 19.683594 L 27.949219 -387.128906 L 354.25 -387.128906 L 302.019531 -192.09375 L 117.070312 -201.859375 L 118.105469 -221.515625 L 137.105469 -216.371094 L 130.28125 -191.175781 L 111.28125 -196.320312 L 110.476562 -215.988281 L 265.035156 -222.324219 L 236.539062 -111.679688 L 94.910156 -119.976562 L 96.058594 -139.628906 L 115.546875 -136.84375 L 93.1875 19.683594 Z M 76.113281 -19.683594 L 76.113281 0 L 56.625 -2.785156 L 79.132812 -160.339844 L 222.667969 -151.929688 L 221.515625 -132.28125 L 202.453125 -137.191406 L 220.300781 -206.480469 L 239.363281 -201.570312 L 240.167969 -181.902344 L 85.265625 -175.550781 L 103.265625 -242.011719 L 288.167969 -232.25 L 287.132812 -212.59375 L 268.117188 -217.683594 L 309.585938 -372.535156 L 328.601562 -367.445312 L 328.601562 -347.757812 L 43.042969 -347.757812 L 43.042969 -367.445312 L 62.054688 -362.335938 L -36.628906 5.105469 L -55.640625 0 L -55.640625 -19.683594 Z M 76.113281 -19.683594 "/></g></g></g><g fill="#e5fe5d" fill-opacity="1"><g transform="translate(37.703503, 524.577637)"><g><path d="M 322.296875 0 L 183.203125 0 L 213.125 -207.875 L 206.296875 -207.875 L 124.9375 0 L -14.171875 0 L 28.34375 -367.453125 L 181.09375 -367.453125 L 114.953125 -153.796875 L 121.78125 -152.75 L 216.265625 -348.546875 L 278.203125 -348.546875 L 267.703125 -152.75 L 275.0625 -153.796875 L 324.40625 -367.453125 L 477.15625 -367.453125 Z M 322.296875 0 "/></g></g></g><g fill="#e5fe5d" fill-opacity="1"><g transform="translate(381.524267, 524.577637)"><g><path d="M 76.109375 0 L -55.640625 0 L 43.046875 -367.453125 L 328.59375 -367.453125 L 287.125 -212.59375 L 118.109375 -221.515625 L 111.28125 -196.328125 L 239.359375 -201.5625 L 221.515625 -132.28125 L 96.0625 -139.625 Z M 76.109375 0 "/></g></g></g></g></g></svg>